<?xml version="1.0" encoding="UTF-8" standalone="no"?>
<svg
   xmlns:dc="http://purl.org/dc/elements/1.1/"
   xmlns:cc="http://creativecommons.org/ns#"
   xmlns:rdf="http://www.w3.org/1999/02/22-rdf-syntax-ns#"
   xmlns:svg="http://www.w3.org/2000/svg"
   xmlns="http://www.w3.org/2000/svg"
   xmlns:sodipodi="http://sodipodi.sourceforge.net/DTD/sodipodi-0.dtd"
   xmlns:inkscape="http://www.inkscape.org/namespaces/inkscape"
   class="brand-logo"
   viewBox="0 0 4096 4096"
   version="1.1"
   id="svg24"
   sodipodi:docname="total-express-logo.svg"
   width="4096"
   height="4096"
   inkscape:export-filename="G:\Users\suitedoalex\sites\total-express-logo-0.png"
   inkscape:export-xdpi="96"
   inkscape:export-ydpi="96"
   inkscape:version="0.92.2 (5c3e80d, 2017-08-06)">
  <metadata
     id="metadata30">
    <rdf:RDF>
      <cc:Work
         rdf:about="">
        <dc:format>image/svg+xml</dc:format>
        <dc:type
           rdf:resource="http://purl.org/dc/dcmitype/StillImage" />
        <dc:title></dc:title>
      </cc:Work>
    </rdf:RDF>
  </metadata>
  <defs
     id="defs28" />
  <sodipodi:namedview
     pagecolor="#ffffff"
     bordercolor="#666666"
     borderopacity="1"
     objecttolerance="10"
     gridtolerance="10"
     guidetolerance="10"
     inkscape:pageopacity="0"
     inkscape:pageshadow="2"
     inkscape:window-width="1600"
     inkscape:window-height="837"
     id="namedview26"
     showgrid="false"
     inkscape:zoom="0.052714647"
     inkscape:cx="-4271.7543"
     inkscape:cy="4577.5021"
     inkscape:window-x="-8"
     inkscape:window-y="-8"
     inkscape:window-maximized="1"
     inkscape:current-layer="svg24" />
  <g
     id="Page-1"
     style="fill:none;fill-rule:evenodd;stroke:none;stroke-width:1"
     transform="matrix(33.55306,0,0,33.55306,395.78795,1414.7323)"
     inkscape:export-filename="G:\Users\suitedoalex\sites\total-express-logo-5.png"
     inkscape:export-xdpi="5.8103929"
     inkscape:export-ydpi="5.8103929">
    <g
       id="Home-LP-D"
       transform="translate(-200,-11)">
      <g
         id="Header/Desktop">
        <g
           id="Logotipo"
           transform="translate(200,5)">
          <g
             id="logo-total-express"
             transform="translate(0,6)">
            <path
               d="m 30.736844,17.675947 c -0.838425,1.110576 -2.087045,1.74281 -4.093288,1.74281 -0.538205,0 -1.004094,-0.04592 -1.406687,-0.134035 -1.761364,-0.385794 -2.302751,-1.5875 -2.302751,-3.360096 0,-0.09272 0.0041,-0.189883 0.0069,-0.285977 3.256631,-1.07033 6.394094,-1.879328 9.40231,-2.476635 -0.355915,1.871704 -0.783437,3.423745 -1.60648,4.513933 m 35.120841,-3.353714 c -1.145718,-0.44767 -2.438186,-0.904737 -3.866974,-1.342656 -2.886572,-0.885057 -6.332742,-1.688381 -10.267963,-2.167609 -1.511357,-0.184032 -3.092731,-0.321436 -4.74412,-0.395546 -2.915745,-0.130843 -6.045251,-0.06578 -9.362705,0.265943 -1.608778,0.160807 -3.261935,0.384908 -4.957527,0.681168 -3.04729,0.532594 -6.229132,1.296204 -9.533678,2.345082 -1.632117,0.518233 -3.294645,1.107739 -4.984225,1.770291 -0.743302,0.291473 -1.491201,0.59518 -2.244758,0.915374 -0.323205,0.137404 -0.533607,0.457776 -0.533607,0.809884 0,0.624788 0.633681,1.049233 1.209191,0.810062 0.532724,-0.221442 1.062618,-0.435792 1.590214,-0.644113 0.133313,1.681466 0.600441,2.967919 1.47794,3.898186 1.245791,1.320317 3.316746,1.925248 6.435821,1.925248 5.722576,0 8.60296,-2.032511 10.250459,-6.804231 0.406659,-1.178303 0.738175,-2.524859 1.01877,-4.047824 3.333012,-0.429408 6.476663,-0.601739 9.407791,-0.585073 l -0.54457,3.227302 -1.240663,7.350299 c -0.05534,0.327996 0.196787,0.627093 0.52848,0.627093 h 3.71757 c 0.261323,0 0.484455,-0.188997 0.528303,-0.447493 l 1.320935,-7.801338 0.467304,-2.759243 c 3.876521,0.299097 7.283263,0.906155 10.154099,1.610548 l -0.794046,1.510909 -3.731008,7.098717 c -0.188124,0.357782 0.07055,0.7879 0.474023,0.7879 h 3.704663 c 0.205275,0 0.392515,-0.11737 0.482157,-0.302466 l 3.387823,-6.993936 0.468895,-0.968031 c 4.188411,1.360563 6.486919,2.679815 6.486919,2.679815 0,0 -2.232912,-1.463393 -6.305513,-3.054262"
               id="Fill-22"
               inkscape:connector-curvature="0"
               style="fill:#20315e" />
            <path
               d="M 16.275696,0.40937433 H 0.97576946 c -0.26167623,0 -0.48498507,0.18952843 -0.52847991,0.44820194 L 0.00756739,3.480125 C -0.04741998,3.8079436 0.2045318,4.1066858 0.5360473,4.1066858 H 5.6679072 L 2.5914434,22.334038 c -0.055341,0.327996 0.1967876,0.627092 0.5284799,0.627092 h 3.7175706 c 0.2613226,0 0.4844547,-0.188996 0.5283031,-0.447492 L 10.482573,4.1066858 h 5.353401 c 0.261676,0 0.485162,-0.1895284 0.52848,-0.4483792 l 0.439722,-2.6223715 c 0.05499,-0.32781857 -0.196965,-0.62656077 -0.52848,-0.62656077"
               id="Fill-23"
               inkscape:connector-curvature="0"
               style="fill:#c70101" />
            <path
               d="m 29.402189,3.9421914 c 2.903369,0 3.709084,1.3261672 3.709084,3.5134565 0,0.019148 -0.0012,0.039537 -0.0012,0.058685 1.643256,-0.2044212 3.244609,-0.3306553 4.805472,-0.3930632 0,-0.0078 3.54e-4,-0.015956 3.54e-4,-0.023758 0,-4.8491976 -2.180223,-6.92035866 -7.94541,-6.92035866 -7.175056,0 -9.884466,3.18812006 -11.287086,10.94797096 1.761717,-0.662197 3.491786,-1.2288323 5.190383,-1.713557 0.717665,-3.328715 1.84747,-5.4693758 5.528441,-5.4693758"
               id="Fill-24"
               inkscape:connector-curvature="0"
               style="fill:#c70101" />
            <path
               d="m 52.858228,4.1066858 h 5.353401 c 0.261676,0 0.485162,-0.1895284 0.52848,-0.4483792 L 59.179831,1.0359351 C 59.234818,0.70811653 58.982866,0.40937433 58.651351,0.40937433 H 43.351424 c -0.261676,0 -0.484985,0.18952843 -0.52848,0.44820194 L 42.383222,3.480125 c -0.05499,0.3278186 0.196965,0.6265608 0.52848,0.6265608 h 5.13186 l -0.581876,3.4469708 c 1.626459,0.215059 3.186085,0.4935895 4.67375,0.8217627 z"
               id="Fill-25"
               inkscape:connector-curvature="0"
               style="fill:#c70101" />
            <path
               d="m 71.478207,0.17722416 c -1.818473,0 -3.244255,0.93895474 -4.411897,3.14556924 l -4.45875,8.4833916 c 1.335256,0.590748 2.543563,1.188232 3.615198,1.762313 l 4.27381,-8.823089 2.720018,17.760002 c 0.04013,0.26222 0.265036,0.455649 0.529718,0.455649 h 3.980838 c 0.334521,0 0.58718,-0.303884 0.527242,-0.63383 L 74.794777,3.3227934 C 74.402262,1.1741544 73.245052,0.17722416 71.478207,0.17722416"
               id="Fill-26"
               inkscape:connector-curvature="0"
               style="fill:#c70101" />
            <path
               d="m 92.454192,19.302576 c -2.210811,0 -2.923879,-0.348562 -2.923879,-1.703451 0,-0.377462 0.0518,-0.822827 0.14463,-1.364818 L 92.245028,1.0365734 C 92.300545,0.70857749 92.048417,0.40930341 91.716724,0.40930341 h -3.707139 c -0.261322,0 -0.484631,0.18917384 -0.528303,0.44767006 L 84.663843,17.511896 c -0.09283,0.522665 -0.134198,0.987356 -0.134198,1.413218 0,3.910243 3.554377,4.094098 7.397835,4.094098 1.35718,0 3.908877,-0.0734 5.620735,-0.137935 0.25372,-0.0096 0.464121,-0.19662 0.506379,-0.44767 l 0.421334,-2.504293 c 0.05516,-0.327819 -0.196788,-0.626738 -0.52848,-0.626738 z"
               id="Fill-27"
               inkscape:connector-curvature="0"
               style="fill:#c70101" />
            <path
               d="m 57.149241,31.28751 c 0.439722,-0.02269 1.110533,-0.07978 1.508528,-0.132971 0.02281,-0.07606 0.04544,-0.193784 0.05693,-0.269843 0.02263,-0.15212 0.03784,-0.292715 0.03784,-0.421963 0,-0.619469 -0.299513,-0.954025 -1.076408,-0.954025 -1.216618,0 -1.504816,0.775489 -1.671546,1.835891 z m 0.731632,-3.070928 c 1.906347,0 2.486278,0.813252 2.486278,2.162645 0,0.35725 -0.04173,0.752441 -0.109798,1.182027 -0.02652,0.178536 -0.06082,0.360972 -0.106261,0.543409 -0.773183,0.140595 -2.266506,0.288814 -3.183787,0.338279 l -1.099217,0.05709 c -0.0076,0.09113 -0.01503,0.178536 -0.01503,0.258319 0,0.840024 0.504081,1.056679 1.372033,1.056679 0.894473,0 1.720698,-0.09131 2.410603,-0.178714 l -0.06065,1.273333 c -0.716427,0.117724 -1.652627,0.258497 -2.933779,0.258497 -1.796549,0 -2.380193,-0.946579 -2.380193,-2.352706 0,-0.349626 0.03784,-0.726023 0.09848,-1.124937 0.38668,-2.45536 1.303961,-3.47392 3.521313,-3.47392 z"
               id="Fill-28"
               inkscape:connector-curvature="0"
               style="fill:#20315e" />
            <polygon
               id="Fill-29"
               points="60.341832,35.076731 63.286751,31.584018 61.577368,28.307783 63.464974,28.307783 64.469245,30.333556 66.102953,28.307783 67.87298,28.307783 65.132629,31.5498 66.98611,35.076731 65.060668,35.076731 63.946246,32.838204 62.153587,35.076731 "
               style="fill:#20315e" />
            <path
               d="m 72.66139,31.694172 c 0.05304,-0.334379 0.09848,-0.661311 0.09848,-0.957748 0,-0.684182 -0.246294,-1.197274 -1.231824,-1.197274 -0.367584,0 -0.792101,0.06081 -1.061203,0.178713 -0.06825,0.273567 -0.132783,0.604222 -0.181936,0.908283 l -0.481449,3.063482 c 0.254074,0.08741 0.614056,0.148218 0.898363,0.148218 1.580489,0 1.762425,-0.912183 1.959566,-2.143674 z m -3.475697,5.875913 h -1.648737 l 1.174891,-7.441783 c 0.07214,-0.459904 0.155415,-0.851371 0.261676,-1.284503 0.814733,-0.444834 1.864797,-0.62727 2.762983,-0.62727 1.82696,0 2.691199,0.562557 2.691199,2.276646 0,0.349626 -0.03412,0.748717 -0.106262,1.200997 -0.416914,2.622548 -1.459198,3.473919 -3.494615,3.473919 -0.397996,0 -0.860349,-0.05709 -1.235536,-0.144495 z"
               id="Fill-30"
               inkscape:connector-curvature="0"
               style="fill:#20315e" />
            <path
               d="m 75.18692,35.076802 0.780785,-4.948483 c 0.07196,-0.459903 0.151525,-0.851371 0.257786,-1.284503 0.81491,-0.444833 1.864797,-0.627269 2.762983,-0.627269 0.234978,0 0.458641,0.01135 0.663385,0.03422 l -0.344953,1.353116 c -0.136496,-0.01915 -0.306939,-0.02659 -0.473846,-0.02659 -0.386503,0 -0.849034,0.07216 -1.133165,0.209031 -0.07214,0.273566 -0.132783,0.604222 -0.181935,0.908283 l -0.693619,4.382202 z"
               id="Fill-31"
               inkscape:connector-curvature="0"
               style="fill:#20315e" />
            <path
               d="m 82.404339,31.28751 c 0.439722,-0.02269 1.110533,-0.07978 1.508528,-0.132971 0.02263,-0.07606 0.04544,-0.193784 0.05693,-0.269843 0.02263,-0.15212 0.03784,-0.292715 0.03784,-0.421963 0,-0.619469 -0.299337,-0.954025 -1.076409,-0.954025 -1.216618,0 -1.504815,0.775489 -1.671546,1.835891 z m 0.731633,-3.070928 c 1.906346,0 2.486278,0.813252 2.486278,2.162645 0,0.35725 -0.04155,0.752441 -0.109975,1.182027 -0.02635,0.178536 -0.06047,0.360972 -0.106085,0.543409 -0.773183,0.140595 -2.266505,0.288814 -3.183787,0.338279 l -1.099216,0.05709 c -0.0076,0.09113 -0.01503,0.178536 -0.01503,0.258319 0,0.840024 0.50408,1.056679 1.372032,1.056679 0.894473,0 1.720698,-0.09131 2.410604,-0.178714 l -0.06064,1.273333 c -0.716428,0.117724 -1.652627,0.258497 -2.933603,0.258497 -1.796726,0 -2.38037,-0.946579 -2.38037,-2.352706 0,-0.349626 0.03784,-0.726023 0.09848,-1.124937 0.38668,-2.45536 1.303961,-3.47392 3.521314,-3.47392 z"
               id="Fill-32"
               inkscape:connector-curvature="0"
               style="fill:#20315e" />
            <path
               d="m 88.723838,32.302276 c -0.883157,-0.292537 -1.77763,-0.592875 -1.77763,-1.714089 0,-0.125347 0.01131,-0.258496 0.03412,-0.402814 0.242581,-1.527929 1.353113,-1.968685 2.675816,-1.968685 0.943802,0 1.588268,0.08741 2.384083,0.28119 l -0.352379,1.231315 c -0.507971,-0.106377 -1.053778,-0.197684 -1.648737,-0.197684 -0.523176,0 -1.315277,0.0039 -1.406333,0.581527 -0.09088,0.593052 0.572328,0.695529 1.084011,0.881866 0.921171,0.342002 1.724588,0.558657 1.724588,1.664624 0,0.136871 -0.01132,0.292714 -0.03784,0.459903 -0.253897,1.603989 -1.470691,2.048645 -2.92989,2.048645 -0.754264,0 -1.660229,-0.106377 -2.315834,-0.292714 l 0.356268,-1.254186 c 0.481272,0.09503 1.262234,0.20513 1.770028,0.20513 0.500367,0 1.341798,0.01915 1.447883,-0.649786 0.0076,-0.04947 0.01131,-0.09503 0.01131,-0.136872 0,-0.516992 -0.534314,-0.577804 -1.019476,-0.73737"
               id="Fill-33"
               inkscape:connector-curvature="0"
               style="fill:#20315e" />
            <path
               d="m 94.68316,32.302276 c -0.883157,-0.292537 -1.77763,-0.592875 -1.77763,-1.714089 0,-0.125347 0.01132,-0.258496 0.03412,-0.402814 0.242581,-1.527929 1.353114,-1.968685 2.675816,-1.968685 0.943803,0 1.588269,0.08741 2.384083,0.28119 l -0.352379,1.231315 c -0.50797,-0.106377 -1.053777,-0.197684 -1.648914,-0.197684 -0.522998,0 -1.3151,0.0039 -1.406156,0.581527 -0.09088,0.593052 0.572329,0.695529 1.084012,0.881866 0.921171,0.342002 1.724588,0.558657 1.724588,1.664624 0,0.136871 -0.01132,0.292714 -0.03784,0.459903 -0.253897,1.603989 -1.470692,2.048645 -2.92989,2.048645 -0.754264,0 -1.66023,-0.106377 -2.315835,-0.292714 l 0.356269,-1.254186 c 0.481272,0.09503 1.262057,0.20513 1.770027,0.20513 0.500368,0 1.341798,0.01915 1.447883,-0.649786 0.0076,-0.04947 0.01132,-0.09503 0.01132,-0.136872 0,-0.516992 -0.534315,-0.577804 -1.019477,-0.73737"
               id="Fill-34"
               inkscape:connector-curvature="0"
               style="fill:#20315e" />
            <path
               d="m 22.934207,15.924679 c 0,-0.09272 0.0039,-0.19006 0.0067,-0.285977 -1.566168,0.514865 -3.160448,1.09196 -4.779305,1.731287 0.133137,1.681643 0.600264,2.968096 1.477941,3.898364 1.903517,-0.734534 3.769729,-1.393008 5.597396,-1.983578 -1.761364,-0.385971 -2.302751,-1.5875 -2.302751,-3.360096"
               id="Fill-35"
               inkscape:connector-curvature="0"
               style="fill:#1e2348" />
            <path
               d="m 32.343271,13.161925 c -0.355915,1.871882 -0.783438,3.423923 -1.60648,4.513933 1.914834,-0.500859 3.778746,-0.926899 5.588909,-1.28663 0.406836,-1.178303 0.738175,-2.524682 1.01877,-4.047824 -1.622747,0.209208 -3.29111,0.481001 -5.001199,0.820521"
               id="Fill-36"
               inkscape:connector-curvature="0"
               style="fill:#1e2348" />
            <path
               d="m 46.752384,11.756436 -0.544746,3.227303 c 1.688165,-0.143255 3.308083,-0.230661 4.854802,-0.271439 l 0.467127,-2.759243 c -1.521612,-0.11737 -3.115008,-0.187224 -4.777183,-0.196621"
               id="Fill-37"
               inkscape:connector-curvature="0"
               style="fill:#1e2348" />
            <path
               d="m 61.683825,13.563587 -0.794223,1.510909 c 1.596048,0.165594 3.03898,0.370724 4.317658,0.590215 l 0.469072,-0.968031 c -1.18267,-0.384198 -2.517396,-0.771233 -3.992507,-1.133093"
               id="Fill-38"
               inkscape:connector-curvature="0"
               style="fill:#1e2348" />
          </g>
        </g>
      </g>
    </g>
  </g>
</svg>
