<svg aria-roledescription="er" role="graphics-document document" viewBox="0 0 675.05126953125 834" style="max-width: 675.051px; background-color: white;" xmlns:xlink="http://www.w3.org/1999/xlink" xmlns="http://www.w3.org/2000/svg" width="100%" id="my-svg"><style>#my-svg{font-family:"trebuchet ms",verdana,arial,sans-serif;font-size:16px;fill:#000000;}#my-svg .error-icon{fill:#552222;}#my-svg .error-text{fill:#552222;stroke:#552222;}#my-svg .edge-thickness-normal{stroke-width:2px;}#my-svg .edge-thickness-thick{stroke-width:3.5px;}#my-svg .edge-pattern-solid{stroke-dasharray:0;}#my-svg .edge-pattern-dashed{stroke-dasharray:3;}#my-svg .edge-pattern-dotted{stroke-dasharray:2;}#my-svg .marker{fill:#000000;stroke:#000000;}#my-svg .marker.cross{stroke:#000000;}#my-svg svg{font-family:"trebuchet ms",verdana,arial,sans-serif;font-size:16px;}#my-svg .entityBox{fill:#cde498;stroke:#13540c;}#my-svg .attributeBoxOdd{fill:#ffffff;stroke:#13540c;}#my-svg .attributeBoxEven{fill:#f2f2f2;stroke:#13540c;}#my-svg .relationshipLabelBox{fill:hsl(78.1578947368, 58.4615384615%, 84.5098039216%);opacity:0.7;background-color:hsl(78.1578947368, 58.4615384615%, 84.5098039216%);}#my-svg .relationshipLabelBox rect{opacity:0.5;}#my-svg .relationshipLine{stroke:#000000;}#my-svg .entityTitleText{text-anchor:middle;font-size:18px;fill:#000000;}#my-svg #MD_PARENT_START{fill:#f5f5f5!important;stroke:#000000!important;stroke-width:1;}#my-svg #MD_PARENT_END{fill:#f5f5f5!important;stroke:#000000!important;stroke-width:1;}#my-svg :root{--mermaid-font-family:"trebuchet ms",verdana,arial,sans-serif;}</style><g/><defs><marker orient="auto" markerHeight="240" markerWidth="190" refY="7" refX="0" id="MD_PARENT_START"><path d="M 18,7 L9,13 L1,7 L9,1 Z"/></marker></defs><defs><marker orient="auto" markerHeight="28" markerWidth="20" refY="7" refX="19" id="MD_PARENT_END"><path d="M 18,7 L9,13 L1,7 L9,1 Z"/></marker></defs><defs><marker orient="auto" markerHeight="18" markerWidth="18" refY="9" refX="0" id="ONLY_ONE_START"><path d="M9,0 L9,18 M15,0 L15,18" fill="none" stroke="gray"/></marker></defs><defs><marker orient="auto" markerHeight="18" markerWidth="18" refY="9" refX="18" id="ONLY_ONE_END"><path d="M3,0 L3,18 M9,0 L9,18" fill="none" stroke="gray"/></marker></defs><defs><marker orient="auto" markerHeight="18" markerWidth="30" refY="9" refX="0" id="ZERO_OR_ONE_START"><circle r="6" cy="9" cx="21" fill="white" stroke="gray"/><path d="M9,0 L9,18" fill="none" stroke="gray"/></marker></defs><defs><marker orient="auto" markerHeight="18" markerWidth="30" refY="9" refX="30" id="ZERO_OR_ONE_END"><circle r="6" cy="9" cx="9" fill="white" stroke="gray"/><path d="M21,0 L21,18" fill="none" stroke="gray"/></marker></defs><defs><marker orient="auto" markerHeight="36" markerWidth="45" refY="18" refX="18" id="ONE_OR_MORE_START"><path d="M0,18 Q 18,0 36,18 Q 18,36 0,18 M42,9 L42,27" fill="none" stroke="gray"/></marker></defs><defs><marker orient="auto" markerHeight="36" markerWidth="45" refY="18" refX="27" id="ONE_OR_MORE_END"><path d="M3,9 L3,27 M9,18 Q27,0 45,18 Q27,36 9,18" fill="none" stroke="gray"/></marker></defs><defs><marker orient="auto" markerHeight="36" markerWidth="57" refY="18" refX="18" id="ZERO_OR_MORE_START"><circle r="6" cy="18" cx="48" fill="white" stroke="gray"/><path d="M0,18 Q18,0 36,18 Q18,36 0,18" fill="none" stroke="gray"/></marker></defs><defs><marker orient="auto" markerHeight="36" markerWidth="57" refY="18" refX="39" id="ZERO_OR_MORE_END"><circle r="6" cy="18" cx="9" fill="white" stroke="gray"/><path d="M21,18 Q39,0 57,18 Q39,36 21,18" fill="none" stroke="gray"/></marker></defs><path style="stroke: gray; fill: none;" marker-start="url(#ZERO_OR_ONE_START)" marker-end="url(#ZERO_OR_MORE_END)" d="M108.662,432L108.662,473.167C108.662,514.333,108.662,596.667,108.662,648C108.662,699.333,108.662,719.667,108.662,729.833L108.662,740" class="er relationshipLine"/><path style="stroke: gray; fill: none;" marker-start="url(#ZERO_OR_ONE_START)" marker-end="url(#ONLY_ONE_END)" d="M387.901,629L385.3,637.333C382.7,645.667,377.498,662.333,374.898,679C372.297,695.667,372.297,712.333,372.297,720.667L372.297,729" class="er relationshipLine"/><path style="stroke: gray; fill: none;" marker-start="url(#ZERO_OR_ONE_START)" marker-end="url(#ONLY_ONE_END)" d="M577.961,629L580.562,637.333C583.162,645.667,588.364,662.333,590.964,679C593.565,695.667,593.565,712.333,593.565,720.667L593.565,729" class="er relationshipLine"/><g transform="translate(53.25019836425781,740 )" id="entity-UserType-429c3533-c7a3-5d68-9a88-d1da5e4d68d0"><rect height="63" width="110.82363891601562" y="0" x="0" class="er entityBox"/><text style="dominant-baseline: middle; text-anchor: middle; font-size: 12px;" transform="translate(55.41181945800781,11)" y="0" x="0" id="text-entity-UserType-429c3533-c7a3-5d68-9a88-d1da5e4d68d0" class="er entityLabel">UserType</text><rect height="20" width="55.41181945800781" y="22" x="0" class="er attributeBoxOdd"/><text style="dominant-baseline: middle; font-size: 10.2px;" transform="translate(5,32)" y="0" x="0" id="text-entity-UserType-429c3533-c7a3-5d68-9a88-d1da5e4d68d0-attr-1-type" class="er entityLabel">consumer</text><rect height="20" width="55.41181945800781" y="22" x="55.41181945800781" class="er attributeBoxOdd"/><text style="dominant-baseline: middle; font-size: 10.2px;" transform="translate(60.41181945800781,32)" y="0" x="0" id="text-entity-UserType-429c3533-c7a3-5d68-9a88-d1da5e4d68d0-attr-1-name" class="er entityLabel">consumer</text><rect height="21" width="55.41181945800781" y="42" x="0" class="er attributeBoxEven"/><text style="dominant-baseline: middle; font-size: 10.2px;" transform="translate(5,52.5)" y="0" x="0" id="text-entity-UserType-429c3533-c7a3-5d68-9a88-d1da5e4d68d0-attr-2-type" class="er entityLabel">admim</text><rect height="21" width="55.41181945800781" y="42" x="55.41181945800781" class="er attributeBoxEven"/><text style="dominant-baseline: middle; font-size: 10.2px;" transform="translate(60.41181945800781,52.5)" y="0" x="0" id="text-entity-UserType-429c3533-c7a3-5d68-9a88-d1da5e4d68d0-attr-2-name" class="er entityLabel">admim</text></g><g transform="translate(312.5148239135742,729 )" id="entity-ProductType-cd875028-8647-538d-872f-08ef73d152ef"><rect height="85" width="119.56402587890625" y="0" x="0" class="er entityBox"/><text style="dominant-baseline: middle; text-anchor: middle; font-size: 12px;" transform="translate(59.782012939453125,11)" y="0" x="0" id="text-entity-ProductType-cd875028-8647-538d-872f-08ef73d152ef" class="er entityLabel">ProductType</text><rect height="21" width="59.782012939453125" y="22" x="0" class="er attributeBoxOdd"/><text style="dominant-baseline: middle; font-size: 10.2px;" transform="translate(5,32.5)" y="0" x="0" id="text-entity-ProductType-cd875028-8647-538d-872f-08ef73d152ef-attr-1-type" class="er entityLabel">bread</text><rect height="21" width="59.782012939453125" y="22" x="59.782012939453125" class="er attributeBoxOdd"/><text style="dominant-baseline: middle; font-size: 10.2px;" transform="translate(64.78201293945312,32.5)" y="0" x="0" id="text-entity-ProductType-cd875028-8647-538d-872f-08ef73d152ef-attr-1-name" class="er entityLabel">bread</text><rect height="21" width="59.782012939453125" y="43" x="0" class="er attributeBoxEven"/><text style="dominant-baseline: middle; font-size: 10.2px;" transform="translate(5,53.5)" y="0" x="0" id="text-entity-ProductType-cd875028-8647-538d-872f-08ef73d152ef-attr-2-type" class="er entityLabel">hamburger</text><rect height="21" width="59.782012939453125" y="43" x="59.782012939453125" class="er attributeBoxEven"/><text style="dominant-baseline: middle; font-size: 10.2px;" transform="translate(64.78201293945312,53.5)" y="0" x="0" id="text-entity-ProductType-cd875028-8647-538d-872f-08ef73d152ef-attr-2-name" class="er entityLabel">hamburger</text><rect height="21" width="59.782012939453125" y="64" x="0" class="er attributeBoxOdd"/><text style="dominant-baseline: middle; font-size: 10.2px;" transform="translate(5,74.5)" y="0" x="0" id="text-entity-ProductType-cd875028-8647-538d-872f-08ef73d152ef-attr-3-type" class="er entityLabel">other</text><rect height="21" width="59.782012939453125" y="64" x="59.782012939453125" class="er attributeBoxOdd"/><text style="dominant-baseline: middle; font-size: 10.2px;" transform="translate(64.78201293945312,74.5)" y="0" x="0" id="text-entity-ProductType-cd875028-8647-538d-872f-08ef73d152ef-attr-3-name" class="er entityLabel">other</text></g><g transform="translate(532.0788497924805,729 )" id="entity-ProductState-3c0f2249-48d8-5d9b-a4fb-ef5bb3faf642"><rect height="85" width="122.97238159179688" y="0" x="0" class="er entityBox"/><text style="dominant-baseline: middle; text-anchor: middle; font-size: 12px;" transform="translate(61.48619079589844,11)" y="0" x="0" id="text-entity-ProductState-3c0f2249-48d8-5d9b-a4fb-ef5bb3faf642" class="er entityLabel">ProductState</text><rect height="21" width="61.48619079589844" y="22" x="0" class="er attributeBoxOdd"/><text style="dominant-baseline: middle; font-size: 10.2px;" transform="translate(5,32.5)" y="0" x="0" id="text-entity-ProductState-3c0f2249-48d8-5d9b-a4fb-ef5bb3faf642-attr-1-type" class="er entityLabel">available</text><rect height="21" width="61.48619079589844" y="22" x="61.48619079589844" class="er attributeBoxOdd"/><text style="dominant-baseline: middle; font-size: 10.2px;" transform="translate(66.48619079589844,32.5)" y="0" x="0" id="text-entity-ProductState-3c0f2249-48d8-5d9b-a4fb-ef5bb3faf642-attr-1-name" class="er entityLabel">available</text><rect height="21" width="61.48619079589844" y="43" x="0" class="er attributeBoxEven"/><text style="dominant-baseline: middle; font-size: 10.2px;" transform="translate(5,53.5)" y="0" x="0" id="text-entity-ProductState-3c0f2249-48d8-5d9b-a4fb-ef5bb3faf642-attr-2-type" class="er entityLabel">unavailable</text><rect height="21" width="61.48619079589844" y="43" x="61.48619079589844" class="er attributeBoxEven"/><text style="dominant-baseline: middle; font-size: 10.2px;" transform="translate(66.48619079589844,53.5)" y="0" x="0" id="text-entity-ProductState-3c0f2249-48d8-5d9b-a4fb-ef5bb3faf642-attr-2-name" class="er entityLabel">unavailable</text><rect height="21" width="61.48619079589844" y="64" x="0" class="er attributeBoxOdd"/><text style="dominant-baseline: middle; font-size: 10.2px;" transform="translate(5,74.5)" y="0" x="0" id="text-entity-ProductState-3c0f2249-48d8-5d9b-a4fb-ef5bb3faf642-attr-3-type" class="er entityLabel">outOfStock</text><rect height="21" width="61.48619079589844" y="64" x="61.48619079589844" class="er attributeBoxOdd"/><text style="dominant-baseline: middle; font-size: 10.2px;" transform="translate(66.48619079589844,74.5)" y="0" x="0" id="text-entity-ProductState-3c0f2249-48d8-5d9b-a4fb-ef5bb3faf642-attr-3-name" class="er entityLabel">outOfStock</text></g><g transform="translate(20,217 )" id="entity-users-33ae1e26-be31-5c1d-bf65-e859e9d0308e"><rect height="215" width="177.32403564453125" y="0" x="0" class="er entityBox"/><text style="dominant-baseline: middle; text-anchor: middle; font-size: 12px;" transform="translate(88.66201782226562,11)" y="0" x="0" id="text-entity-users-33ae1e26-be31-5c1d-bf65-e859e9d0308e" class="er entityLabel">users</text><rect height="23" width="54.059539794921875" y="22" x="0" class="er attributeBoxOdd"/><text style="dominant-baseline: middle; font-size: 10.2px;" transform="translate(5,33.5)" y="0" x="0" id="text-entity-users-33ae1e26-be31-5c1d-bf65-e859e9d0308e-attr-1-type" class="er entityLabel">String</text><rect height="23" width="100.26449584960938" y="22" x="54.059539794921875" class="er attributeBoxOdd"/><text style="dominant-baseline: middle; font-size: 10.2px;" transform="translate(59.059539794921875,33.5)" y="0" x="0" id="text-entity-users-33ae1e26-be31-5c1d-bf65-e859e9d0308e-attr-1-name" class="er entityLabel">id</text><rect height="23" width="23" y="22" x="154.32403564453125" class="er attributeBoxOdd"/><text style="dominant-baseline: middle; font-size: 10.2px;" transform="translate(159.32403564453125,33.5)" y="0" x="0" id="text-entity-users-33ae1e26-be31-5c1d-bf65-e859e9d0308e-attr-1-comment" class="er entityLabel">🗝️</text><rect height="21" width="54.059539794921875" y="45" x="0" class="er attributeBoxEven"/><text style="dominant-baseline: middle; font-size: 10.2px;" transform="translate(5,55.5)" y="0" x="0" id="text-entity-users-33ae1e26-be31-5c1d-bf65-e859e9d0308e-attr-2-type" class="er entityLabel">String</text><rect height="21" width="100.26449584960938" y="45" x="54.059539794921875" class="er attributeBoxEven"/><text style="dominant-baseline: middle; font-size: 10.2px;" transform="translate(59.059539794921875,55.5)" y="0" x="0" id="text-entity-users-33ae1e26-be31-5c1d-bf65-e859e9d0308e-attr-2-name" class="er entityLabel">name</text><rect height="21" width="23" y="45" x="154.32403564453125" class="er attributeBoxEven"/><text style="dominant-baseline: middle; font-size: 10.2px;" transform="translate(159.32403564453125,55.5)" y="0" x="0" id="text-entity-users-33ae1e26-be31-5c1d-bf65-e859e9d0308e-attr-2-comment" class="er entityLabel"/><rect height="21" width="54.059539794921875" y="66" x="0" class="er attributeBoxOdd"/><text style="dominant-baseline: middle; font-size: 10.2px;" transform="translate(5,76.5)" y="0" x="0" id="text-entity-users-33ae1e26-be31-5c1d-bf65-e859e9d0308e-attr-3-type" class="er entityLabel">String</text><rect height="21" width="100.26449584960938" y="66" x="54.059539794921875" class="er attributeBoxOdd"/><text style="dominant-baseline: middle; font-size: 10.2px;" transform="translate(59.059539794921875,76.5)" y="0" x="0" id="text-entity-users-33ae1e26-be31-5c1d-bf65-e859e9d0308e-attr-3-name" class="er entityLabel">email</text><rect height="21" width="23" y="66" x="154.32403564453125" class="er attributeBoxOdd"/><text style="dominant-baseline: middle; font-size: 10.2px;" transform="translate(159.32403564453125,76.5)" y="0" x="0" id="text-entity-users-33ae1e26-be31-5c1d-bf65-e859e9d0308e-attr-3-comment" class="er entityLabel"/><rect height="21" width="54.059539794921875" y="87" x="0" class="er attributeBoxEven"/><text style="dominant-baseline: middle; font-size: 10.2px;" transform="translate(5,97.5)" y="0" x="0" id="text-entity-users-33ae1e26-be31-5c1d-bf65-e859e9d0308e-attr-4-type" class="er entityLabel">Boolean</text><rect height="21" width="100.26449584960938" y="87" x="54.059539794921875" class="er attributeBoxEven"/><text style="dominant-baseline: middle; font-size: 10.2px;" transform="translate(59.059539794921875,97.5)" y="0" x="0" id="text-entity-users-33ae1e26-be31-5c1d-bf65-e859e9d0308e-attr-4-name" class="er entityLabel">email_verified</text><rect height="21" width="23" y="87" x="154.32403564453125" class="er attributeBoxEven"/><text style="dominant-baseline: middle; font-size: 10.2px;" transform="translate(159.32403564453125,97.5)" y="0" x="0" id="text-entity-users-33ae1e26-be31-5c1d-bf65-e859e9d0308e-attr-4-comment" class="er entityLabel"/><rect height="23" width="54.059539794921875" y="108" x="0" class="er attributeBoxOdd"/><text style="dominant-baseline: middle; font-size: 10.2px;" transform="translate(5,119.5)" y="0" x="0" id="text-entity-users-33ae1e26-be31-5c1d-bf65-e859e9d0308e-attr-5-type" class="er entityLabel">DateTime</text><rect height="23" width="100.26449584960938" y="108" x="54.059539794921875" class="er attributeBoxOdd"/><text style="dominant-baseline: middle; font-size: 10.2px;" transform="translate(59.059539794921875,119.5)" y="0" x="0" id="text-entity-users-33ae1e26-be31-5c1d-bf65-e859e9d0308e-attr-5-name" class="er entityLabel">email_verificated_at</text><rect height="23" width="23" y="108" x="154.32403564453125" class="er attributeBoxOdd"/><text style="dominant-baseline: middle; font-size: 10.2px;" transform="translate(159.32403564453125,119.5)" y="0" x="0" id="text-entity-users-33ae1e26-be31-5c1d-bf65-e859e9d0308e-attr-5-comment" class="er entityLabel">❓</text><rect height="21" width="54.059539794921875" y="131" x="0" class="er attributeBoxEven"/><text style="dominant-baseline: middle; font-size: 10.2px;" transform="translate(5,141.5)" y="0" x="0" id="text-entity-users-33ae1e26-be31-5c1d-bf65-e859e9d0308e-attr-6-type" class="er entityLabel">String</text><rect height="21" width="100.26449584960938" y="131" x="54.059539794921875" class="er attributeBoxEven"/><text style="dominant-baseline: middle; font-size: 10.2px;" transform="translate(59.059539794921875,141.5)" y="0" x="0" id="text-entity-users-33ae1e26-be31-5c1d-bf65-e859e9d0308e-attr-6-name" class="er entityLabel">password</text><rect height="21" width="23" y="131" x="154.32403564453125" class="er attributeBoxEven"/><text style="dominant-baseline: middle; font-size: 10.2px;" transform="translate(159.32403564453125,141.5)" y="0" x="0" id="text-entity-users-33ae1e26-be31-5c1d-bf65-e859e9d0308e-attr-6-comment" class="er entityLabel"/><rect height="21" width="54.059539794921875" y="152" x="0" class="er attributeBoxOdd"/><text style="dominant-baseline: middle; font-size: 10.2px;" transform="translate(5,162.5)" y="0" x="0" id="text-entity-users-33ae1e26-be31-5c1d-bf65-e859e9d0308e-attr-7-type" class="er entityLabel">UserType</text><rect height="21" width="100.26449584960938" y="152" x="54.059539794921875" class="er attributeBoxOdd"/><text style="dominant-baseline: middle; font-size: 10.2px;" transform="translate(59.059539794921875,162.5)" y="0" x="0" id="text-entity-users-33ae1e26-be31-5c1d-bf65-e859e9d0308e-attr-7-name" class="er entityLabel">user_type</text><rect height="21" width="23" y="152" x="154.32403564453125" class="er attributeBoxOdd"/><text style="dominant-baseline: middle; font-size: 10.2px;" transform="translate(159.32403564453125,162.5)" y="0" x="0" id="text-entity-users-33ae1e26-be31-5c1d-bf65-e859e9d0308e-attr-7-comment" class="er entityLabel"/><rect height="21" width="54.059539794921875" y="173" x="0" class="er attributeBoxEven"/><text style="dominant-baseline: middle; font-size: 10.2px;" transform="translate(5,183.5)" y="0" x="0" id="text-entity-users-33ae1e26-be31-5c1d-bf65-e859e9d0308e-attr-8-type" class="er entityLabel">DateTime</text><rect height="21" width="100.26449584960938" y="173" x="54.059539794921875" class="er attributeBoxEven"/><text style="dominant-baseline: middle; font-size: 10.2px;" transform="translate(59.059539794921875,183.5)" y="0" x="0" id="text-entity-users-33ae1e26-be31-5c1d-bf65-e859e9d0308e-attr-8-name" class="er entityLabel">created_at</text><rect height="21" width="23" y="173" x="154.32403564453125" class="er attributeBoxEven"/><text style="dominant-baseline: middle; font-size: 10.2px;" transform="translate(159.32403564453125,183.5)" y="0" x="0" id="text-entity-users-33ae1e26-be31-5c1d-bf65-e859e9d0308e-attr-8-comment" class="er entityLabel"/><rect height="21" width="54.059539794921875" y="194" x="0" class="er attributeBoxOdd"/><text style="dominant-baseline: middle; font-size: 10.2px;" transform="translate(5,204.5)" y="0" x="0" id="text-entity-users-33ae1e26-be31-5c1d-bf65-e859e9d0308e-attr-9-type" class="er entityLabel">DateTime</text><rect height="21" width="100.26449584960938" y="194" x="54.059539794921875" class="er attributeBoxOdd"/><text style="dominant-baseline: middle; font-size: 10.2px;" transform="translate(59.059539794921875,204.5)" y="0" x="0" id="text-entity-users-33ae1e26-be31-5c1d-bf65-e859e9d0308e-attr-9-name" class="er entityLabel">updated_at</text><rect height="21" width="23" y="194" x="154.32403564453125" class="er attributeBoxOdd"/><text style="dominant-baseline: middle; font-size: 10.2px;" transform="translate(159.32403564453125,204.5)" y="0" x="0" id="text-entity-users-33ae1e26-be31-5c1d-bf65-e859e9d0308e-attr-9-comment" class="er entityLabel"/></g><g transform="translate(359.51715087890625,20 )" id="entity-products-ce7ac559-5ef1-5445-aa6b-0190aa04e35c"><rect height="609" width="246.82757568359375" y="0" x="0" class="er entityBox"/><text style="dominant-baseline: middle; text-anchor: middle; font-size: 12px;" transform="translate(123.41378784179688,11)" y="0" x="0" id="text-entity-products-ce7ac559-5ef1-5445-aa6b-0190aa04e35c" class="er entityLabel">products</text><rect height="23" width="68.85165405273438" y="22" x="0" class="er attributeBoxOdd"/><text style="dominant-baseline: middle; font-size: 10.2px;" transform="translate(5,33.5)" y="0" x="0" id="text-entity-products-ce7ac559-5ef1-5445-aa6b-0190aa04e35c-attr-1-type" class="er entityLabel">String</text><rect height="23" width="154.97592163085938" y="22" x="68.85165405273438" class="er attributeBoxOdd"/><text style="dominant-baseline: middle; font-size: 10.2px;" transform="translate(73.85165405273438,33.5)" y="0" x="0" id="text-entity-products-ce7ac559-5ef1-5445-aa6b-0190aa04e35c-attr-1-name" class="er entityLabel">id</text><rect height="23" width="23" y="22" x="223.82757568359375" class="er attributeBoxOdd"/><text style="dominant-baseline: middle; font-size: 10.2px;" transform="translate(228.82757568359375,33.5)" y="0" x="0" id="text-entity-products-ce7ac559-5ef1-5445-aa6b-0190aa04e35c-attr-1-comment" class="er entityLabel">🗝️</text><rect height="21" width="68.85165405273438" y="45" x="0" class="er attributeBoxEven"/><text style="dominant-baseline: middle; font-size: 10.2px;" transform="translate(5,55.5)" y="0" x="0" id="text-entity-products-ce7ac559-5ef1-5445-aa6b-0190aa04e35c-attr-2-type" class="er entityLabel">String</text><rect height="21" width="154.97592163085938" y="45" x="68.85165405273438" class="er attributeBoxEven"/><text style="dominant-baseline: middle; font-size: 10.2px;" transform="translate(73.85165405273438,55.5)" y="0" x="0" id="text-entity-products-ce7ac559-5ef1-5445-aa6b-0190aa04e35c-attr-2-name" class="er entityLabel">name</text><rect height="21" width="23" y="45" x="223.82757568359375" class="er attributeBoxEven"/><text style="dominant-baseline: middle; font-size: 10.2px;" transform="translate(228.82757568359375,55.5)" y="0" x="0" id="text-entity-products-ce7ac559-5ef1-5445-aa6b-0190aa04e35c-attr-2-comment" class="er entityLabel"/><rect height="21" width="68.85165405273438" y="66" x="0" class="er attributeBoxOdd"/><text style="dominant-baseline: middle; font-size: 10.2px;" transform="translate(5,76.5)" y="0" x="0" id="text-entity-products-ce7ac559-5ef1-5445-aa6b-0190aa04e35c-attr-3-type" class="er entityLabel">String</text><rect height="21" width="154.97592163085938" y="66" x="68.85165405273438" class="er attributeBoxOdd"/><text style="dominant-baseline: middle; font-size: 10.2px;" transform="translate(73.85165405273438,76.5)" y="0" x="0" id="text-entity-products-ce7ac559-5ef1-5445-aa6b-0190aa04e35c-attr-3-name" class="er entityLabel">description</text><rect height="21" width="23" y="66" x="223.82757568359375" class="er attributeBoxOdd"/><text style="dominant-baseline: middle; font-size: 10.2px;" transform="translate(228.82757568359375,76.5)" y="0" x="0" id="text-entity-products-ce7ac559-5ef1-5445-aa6b-0190aa04e35c-attr-3-comment" class="er entityLabel"/><rect height="21" width="68.85165405273438" y="87" x="0" class="er attributeBoxEven"/><text style="dominant-baseline: middle; font-size: 10.2px;" transform="translate(5,97.5)" y="0" x="0" id="text-entity-products-ce7ac559-5ef1-5445-aa6b-0190aa04e35c-attr-4-type" class="er entityLabel">Int</text><rect height="21" width="154.97592163085938" y="87" x="68.85165405273438" class="er attributeBoxEven"/><text style="dominant-baseline: middle; font-size: 10.2px;" transform="translate(73.85165405273438,97.5)" y="0" x="0" id="text-entity-products-ce7ac559-5ef1-5445-aa6b-0190aa04e35c-attr-4-name" class="er entityLabel">buy_price</text><rect height="21" width="23" y="87" x="223.82757568359375" class="er attributeBoxEven"/><text style="dominant-baseline: middle; font-size: 10.2px;" transform="translate(228.82757568359375,97.5)" y="0" x="0" id="text-entity-products-ce7ac559-5ef1-5445-aa6b-0190aa04e35c-attr-4-comment" class="er entityLabel"/><rect height="21" width="68.85165405273438" y="108" x="0" class="er attributeBoxOdd"/><text style="dominant-baseline: middle; font-size: 10.2px;" transform="translate(5,118.5)" y="0" x="0" id="text-entity-products-ce7ac559-5ef1-5445-aa6b-0190aa04e35c-attr-5-type" class="er entityLabel">Int</text><rect height="21" width="154.97592163085938" y="108" x="68.85165405273438" class="er attributeBoxOdd"/><text style="dominant-baseline: middle; font-size: 10.2px;" transform="translate(73.85165405273438,118.5)" y="0" x="0" id="text-entity-products-ce7ac559-5ef1-5445-aa6b-0190aa04e35c-attr-5-name" class="er entityLabel">price</text><rect height="21" width="23" y="108" x="223.82757568359375" class="er attributeBoxOdd"/><text style="dominant-baseline: middle; font-size: 10.2px;" transform="translate(228.82757568359375,118.5)" y="0" x="0" id="text-entity-products-ce7ac559-5ef1-5445-aa6b-0190aa04e35c-attr-5-comment" class="er entityLabel"/><rect height="21" width="68.85165405273438" y="129" x="0" class="er attributeBoxEven"/><text style="dominant-baseline: middle; font-size: 10.2px;" transform="translate(5,139.5)" y="0" x="0" id="text-entity-products-ce7ac559-5ef1-5445-aa6b-0190aa04e35c-attr-6-type" class="er entityLabel">Int</text><rect height="21" width="154.97592163085938" y="129" x="68.85165405273438" class="er attributeBoxEven"/><text style="dominant-baseline: middle; font-size: 10.2px;" transform="translate(73.85165405273438,139.5)" y="0" x="0" id="text-entity-products-ce7ac559-5ef1-5445-aa6b-0190aa04e35c-attr-6-name" class="er entityLabel">stock</text><rect height="21" width="23" y="129" x="223.82757568359375" class="er attributeBoxEven"/><text style="dominant-baseline: middle; font-size: 10.2px;" transform="translate(228.82757568359375,139.5)" y="0" x="0" id="text-entity-products-ce7ac559-5ef1-5445-aa6b-0190aa04e35c-attr-6-comment" class="er entityLabel"/><rect height="21" width="68.85165405273438" y="150" x="0" class="er attributeBoxOdd"/><text style="dominant-baseline: middle; font-size: 10.2px;" transform="translate(5,160.5)" y="0" x="0" id="text-entity-products-ce7ac559-5ef1-5445-aa6b-0190aa04e35c-attr-7-type" class="er entityLabel">String</text><rect height="21" width="154.97592163085938" y="150" x="68.85165405273438" class="er attributeBoxOdd"/><text style="dominant-baseline: middle; font-size: 10.2px;" transform="translate(73.85165405273438,160.5)" y="0" x="0" id="text-entity-products-ce7ac559-5ef1-5445-aa6b-0190aa04e35c-attr-7-name" class="er entityLabel">image</text><rect height="21" width="23" y="150" x="223.82757568359375" class="er attributeBoxOdd"/><text style="dominant-baseline: middle; font-size: 10.2px;" transform="translate(228.82757568359375,160.5)" y="0" x="0" id="text-entity-products-ce7ac559-5ef1-5445-aa6b-0190aa04e35c-attr-7-comment" class="er entityLabel"/><rect height="21" width="68.85165405273438" y="171" x="0" class="er attributeBoxEven"/><text style="dominant-baseline: middle; font-size: 10.2px;" transform="translate(5,181.5)" y="0" x="0" id="text-entity-products-ce7ac559-5ef1-5445-aa6b-0190aa04e35c-attr-8-type" class="er entityLabel">String</text><rect height="21" width="154.97592163085938" y="171" x="68.85165405273438" class="er attributeBoxEven"/><text style="dominant-baseline: middle; font-size: 10.2px;" transform="translate(73.85165405273438,181.5)" y="0" x="0" id="text-entity-products-ce7ac559-5ef1-5445-aa6b-0190aa04e35c-attr-8-name" class="er entityLabel">barcode</text><rect height="21" width="23" y="171" x="223.82757568359375" class="er attributeBoxEven"/><text style="dominant-baseline: middle; font-size: 10.2px;" transform="translate(228.82757568359375,181.5)" y="0" x="0" id="text-entity-products-ce7ac559-5ef1-5445-aa6b-0190aa04e35c-attr-8-comment" class="er entityLabel"/><rect height="23" width="68.85165405273438" y="192" x="0" class="er attributeBoxOdd"/><text style="dominant-baseline: middle; font-size: 10.2px;" transform="translate(5,203.5)" y="0" x="0" id="text-entity-products-ce7ac559-5ef1-5445-aa6b-0190aa04e35c-attr-9-type" class="er entityLabel">String</text><rect height="23" width="154.97592163085938" y="192" x="68.85165405273438" class="er attributeBoxOdd"/><text style="dominant-baseline: middle; font-size: 10.2px;" transform="translate(73.85165405273438,203.5)" y="0" x="0" id="text-entity-products-ce7ac559-5ef1-5445-aa6b-0190aa04e35c-attr-9-name" class="er entityLabel">sku</text><rect height="23" width="23" y="192" x="223.82757568359375" class="er attributeBoxOdd"/><text style="dominant-baseline: middle; font-size: 10.2px;" transform="translate(228.82757568359375,203.5)" y="0" x="0" id="text-entity-products-ce7ac559-5ef1-5445-aa6b-0190aa04e35c-attr-9-comment" class="er entityLabel">❓</text><rect height="21" width="68.85165405273438" y="215" x="0" class="er attributeBoxEven"/><text style="dominant-baseline: middle; font-size: 10.2px;" transform="translate(5,225.5)" y="0" x="0" id="text-entity-products-ce7ac559-5ef1-5445-aa6b-0190aa04e35c-attr-10-type" class="er entityLabel">Boolean</text><rect height="21" width="154.97592163085938" y="215" x="68.85165405273438" class="er attributeBoxEven"/><text style="dominant-baseline: middle; font-size: 10.2px;" transform="translate(73.85165405273438,225.5)" y="0" x="0" id="text-entity-products-ce7ac559-5ef1-5445-aa6b-0190aa04e35c-attr-10-name" class="er entityLabel">is_available</text><rect height="21" width="23" y="215" x="223.82757568359375" class="er attributeBoxEven"/><text style="dominant-baseline: middle; font-size: 10.2px;" transform="translate(228.82757568359375,225.5)" y="0" x="0" id="text-entity-products-ce7ac559-5ef1-5445-aa6b-0190aa04e35c-attr-10-comment" class="er entityLabel"/><rect height="23" width="68.85165405273438" y="236" x="0" class="er attributeBoxOdd"/><text style="dominant-baseline: middle; font-size: 10.2px;" transform="translate(5,247.5)" y="0" x="0" id="text-entity-products-ce7ac559-5ef1-5445-aa6b-0190aa04e35c-attr-11-type" class="er entityLabel">Float</text><rect height="23" width="154.97592163085938" y="236" x="68.85165405273438" class="er attributeBoxOdd"/><text style="dominant-baseline: middle; font-size: 10.2px;" transform="translate(73.85165405273438,247.5)" y="0" x="0" id="text-entity-products-ce7ac559-5ef1-5445-aa6b-0190aa04e35c-attr-11-name" class="er entityLabel">rating</text><rect height="23" width="23" y="236" x="223.82757568359375" class="er attributeBoxOdd"/><text style="dominant-baseline: middle; font-size: 10.2px;" transform="translate(228.82757568359375,247.5)" y="0" x="0" id="text-entity-products-ce7ac559-5ef1-5445-aa6b-0190aa04e35c-attr-11-comment" class="er entityLabel">❓</text><rect height="21" width="68.85165405273438" y="259" x="0" class="er attributeBoxEven"/><text style="dominant-baseline: middle; font-size: 10.2px;" transform="translate(5,269.5)" y="0" x="0" id="text-entity-products-ce7ac559-5ef1-5445-aa6b-0190aa04e35c-attr-12-type" class="er entityLabel">Boolean</text><rect height="21" width="154.97592163085938" y="259" x="68.85165405273438" class="er attributeBoxEven"/><text style="dominant-baseline: middle; font-size: 10.2px;" transform="translate(73.85165405273438,269.5)" y="0" x="0" id="text-entity-products-ce7ac559-5ef1-5445-aa6b-0190aa04e35c-attr-12-name" class="er entityLabel">is_promotion</text><rect height="21" width="23" y="259" x="223.82757568359375" class="er attributeBoxEven"/><text style="dominant-baseline: middle; font-size: 10.2px;" transform="translate(228.82757568359375,269.5)" y="0" x="0" id="text-entity-products-ce7ac559-5ef1-5445-aa6b-0190aa04e35c-attr-12-comment" class="er entityLabel"/><rect height="23" width="68.85165405273438" y="280" x="0" class="er attributeBoxOdd"/><text style="dominant-baseline: middle; font-size: 10.2px;" transform="translate(5,291.5)" y="0" x="0" id="text-entity-products-ce7ac559-5ef1-5445-aa6b-0190aa04e35c-attr-13-type" class="er entityLabel">Int</text><rect height="23" width="154.97592163085938" y="280" x="68.85165405273438" class="er attributeBoxOdd"/><text style="dominant-baseline: middle; font-size: 10.2px;" transform="translate(73.85165405273438,291.5)" y="0" x="0" id="text-entity-products-ce7ac559-5ef1-5445-aa6b-0190aa04e35c-attr-13-name" class="er entityLabel">promotion_price</text><rect height="23" width="23" y="280" x="223.82757568359375" class="er attributeBoxOdd"/><text style="dominant-baseline: middle; font-size: 10.2px;" transform="translate(228.82757568359375,291.5)" y="0" x="0" id="text-entity-products-ce7ac559-5ef1-5445-aa6b-0190aa04e35c-attr-13-comment" class="er entityLabel">❓</text><rect height="23" width="68.85165405273438" y="303" x="0" class="er attributeBoxEven"/><text style="dominant-baseline: middle; font-size: 10.2px;" transform="translate(5,314.5)" y="0" x="0" id="text-entity-products-ce7ac559-5ef1-5445-aa6b-0190aa04e35c-attr-14-type" class="er entityLabel">DateTime</text><rect height="23" width="154.97592163085938" y="303" x="68.85165405273438" class="er attributeBoxEven"/><text style="dominant-baseline: middle; font-size: 10.2px;" transform="translate(73.85165405273438,314.5)" y="0" x="0" id="text-entity-products-ce7ac559-5ef1-5445-aa6b-0190aa04e35c-attr-14-name" class="er entityLabel">promotion_start</text><rect height="23" width="23" y="303" x="223.82757568359375" class="er attributeBoxEven"/><text style="dominant-baseline: middle; font-size: 10.2px;" transform="translate(228.82757568359375,314.5)" y="0" x="0" id="text-entity-products-ce7ac559-5ef1-5445-aa6b-0190aa04e35c-attr-14-comment" class="er entityLabel">❓</text><rect height="23" width="68.85165405273438" y="326" x="0" class="er attributeBoxOdd"/><text style="dominant-baseline: middle; font-size: 10.2px;" transform="translate(5,337.5)" y="0" x="0" id="text-entity-products-ce7ac559-5ef1-5445-aa6b-0190aa04e35c-attr-15-type" class="er entityLabel">DateTime</text><rect height="23" width="154.97592163085938" y="326" x="68.85165405273438" class="er attributeBoxOdd"/><text style="dominant-baseline: middle; font-size: 10.2px;" transform="translate(73.85165405273438,337.5)" y="0" x="0" id="text-entity-products-ce7ac559-5ef1-5445-aa6b-0190aa04e35c-attr-15-name" class="er entityLabel">promotion_end</text><rect height="23" width="23" y="326" x="223.82757568359375" class="er attributeBoxOdd"/><text style="dominant-baseline: middle; font-size: 10.2px;" transform="translate(228.82757568359375,337.5)" y="0" x="0" id="text-entity-products-ce7ac559-5ef1-5445-aa6b-0190aa04e35c-attr-15-comment" class="er entityLabel">❓</text><rect height="23" width="68.85165405273438" y="349" x="0" class="er attributeBoxEven"/><text style="dominant-baseline: middle; font-size: 10.2px;" transform="translate(5,360.5)" y="0" x="0" id="text-entity-products-ce7ac559-5ef1-5445-aa6b-0190aa04e35c-attr-16-type" class="er entityLabel">DateTime</text><rect height="23" width="154.97592163085938" y="349" x="68.85165405273438" class="er attributeBoxEven"/><text style="dominant-baseline: middle; font-size: 10.2px;" transform="translate(73.85165405273438,360.5)" y="0" x="0" id="text-entity-products-ce7ac559-5ef1-5445-aa6b-0190aa04e35c-attr-16-name" class="er entityLabel">last_promotion</text><rect height="23" width="23" y="349" x="223.82757568359375" class="er attributeBoxEven"/><text style="dominant-baseline: middle; font-size: 10.2px;" transform="translate(228.82757568359375,360.5)" y="0" x="0" id="text-entity-products-ce7ac559-5ef1-5445-aa6b-0190aa04e35c-attr-16-comment" class="er entityLabel">❓</text><rect height="23" width="68.85165405273438" y="372" x="0" class="er attributeBoxOdd"/><text style="dominant-baseline: middle; font-size: 10.2px;" transform="translate(5,383.5)" y="0" x="0" id="text-entity-products-ce7ac559-5ef1-5445-aa6b-0190aa04e35c-attr-17-type" class="er entityLabel">DateTime</text><rect height="23" width="154.97592163085938" y="372" x="68.85165405273438" class="er attributeBoxOdd"/><text style="dominant-baseline: middle; font-size: 10.2px;" transform="translate(73.85165405273438,383.5)" y="0" x="0" id="text-entity-products-ce7ac559-5ef1-5445-aa6b-0190aa04e35c-attr-17-name" class="er entityLabel">promotion_created_at</text><rect height="23" width="23" y="372" x="223.82757568359375" class="er attributeBoxOdd"/><text style="dominant-baseline: middle; font-size: 10.2px;" transform="translate(228.82757568359375,383.5)" y="0" x="0" id="text-entity-products-ce7ac559-5ef1-5445-aa6b-0190aa04e35c-attr-17-comment" class="er entityLabel">❓</text><rect height="23" width="68.85165405273438" y="395" x="0" class="er attributeBoxEven"/><text style="dominant-baseline: middle; font-size: 10.2px;" transform="translate(5,406.5)" y="0" x="0" id="text-entity-products-ce7ac559-5ef1-5445-aa6b-0190aa04e35c-attr-18-type" class="er entityLabel">String</text><rect height="23" width="154.97592163085938" y="395" x="68.85165405273438" class="er attributeBoxEven"/><text style="dominant-baseline: middle; font-size: 10.2px;" transform="translate(73.85165405273438,406.5)" y="0" x="0" id="text-entity-products-ce7ac559-5ef1-5445-aa6b-0190aa04e35c-attr-18-name" class="er entityLabel">promotion_creator_id</text><rect height="23" width="23" y="395" x="223.82757568359375" class="er attributeBoxEven"/><text style="dominant-baseline: middle; font-size: 10.2px;" transform="translate(228.82757568359375,406.5)" y="0" x="0" id="text-entity-products-ce7ac559-5ef1-5445-aa6b-0190aa04e35c-attr-18-comment" class="er entityLabel">❓</text><rect height="23" width="68.85165405273438" y="418" x="0" class="er attributeBoxOdd"/><text style="dominant-baseline: middle; font-size: 10.2px;" transform="translate(5,429.5)" y="0" x="0" id="text-entity-products-ce7ac559-5ef1-5445-aa6b-0190aa04e35c-attr-19-type" class="er entityLabel">String</text><rect height="23" width="154.97592163085938" y="418" x="68.85165405273438" class="er attributeBoxOdd"/><text style="dominant-baseline: middle; font-size: 10.2px;" transform="translate(73.85165405273438,429.5)" y="0" x="0" id="text-entity-products-ce7ac559-5ef1-5445-aa6b-0190aa04e35c-attr-19-name" class="er entityLabel">promotionOwner</text><rect height="23" width="23" y="418" x="223.82757568359375" class="er attributeBoxOdd"/><text style="dominant-baseline: middle; font-size: 10.2px;" transform="translate(228.82757568359375,429.5)" y="0" x="0" id="text-entity-products-ce7ac559-5ef1-5445-aa6b-0190aa04e35c-attr-19-comment" class="er entityLabel">❓</text><rect height="21" width="68.85165405273438" y="441" x="0" class="er attributeBoxEven"/><text style="dominant-baseline: middle; font-size: 10.2px;" transform="translate(5,451.5)" y="0" x="0" id="text-entity-products-ce7ac559-5ef1-5445-aa6b-0190aa04e35c-attr-20-type" class="er entityLabel">ProductType</text><rect height="21" width="154.97592163085938" y="441" x="68.85165405273438" class="er attributeBoxEven"/><text style="dominant-baseline: middle; font-size: 10.2px;" transform="translate(73.85165405273438,451.5)" y="0" x="0" id="text-entity-products-ce7ac559-5ef1-5445-aa6b-0190aa04e35c-attr-20-name" class="er entityLabel">type</text><rect height="21" width="23" y="441" x="223.82757568359375" class="er attributeBoxEven"/><text style="dominant-baseline: middle; font-size: 10.2px;" transform="translate(228.82757568359375,451.5)" y="0" x="0" id="text-entity-products-ce7ac559-5ef1-5445-aa6b-0190aa04e35c-attr-20-comment" class="er entityLabel"/><rect height="21" width="68.85165405273438" y="462" x="0" class="er attributeBoxOdd"/><text style="dominant-baseline: middle; font-size: 10.2px;" transform="translate(5,472.5)" y="0" x="0" id="text-entity-products-ce7ac559-5ef1-5445-aa6b-0190aa04e35c-attr-21-type" class="er entityLabel">ProductState</text><rect height="21" width="154.97592163085938" y="462" x="68.85165405273438" class="er attributeBoxOdd"/><text style="dominant-baseline: middle; font-size: 10.2px;" transform="translate(73.85165405273438,472.5)" y="0" x="0" id="text-entity-products-ce7ac559-5ef1-5445-aa6b-0190aa04e35c-attr-21-name" class="er entityLabel">state</text><rect height="21" width="23" y="462" x="223.82757568359375" class="er attributeBoxOdd"/><text style="dominant-baseline: middle; font-size: 10.2px;" transform="translate(228.82757568359375,472.5)" y="0" x="0" id="text-entity-products-ce7ac559-5ef1-5445-aa6b-0190aa04e35c-attr-21-comment" class="er entityLabel"/><rect height="21" width="68.85165405273438" y="483" x="0" class="er attributeBoxEven"/><text style="dominant-baseline: middle; font-size: 10.2px;" transform="translate(5,493.5)" y="0" x="0" id="text-entity-products-ce7ac559-5ef1-5445-aa6b-0190aa04e35c-attr-22-type" class="er entityLabel">Boolean</text><rect height="21" width="154.97592163085938" y="483" x="68.85165405273438" class="er attributeBoxEven"/><text style="dominant-baseline: middle; font-size: 10.2px;" transform="translate(73.85165405273438,493.5)" y="0" x="0" id="text-entity-products-ce7ac559-5ef1-5445-aa6b-0190aa04e35c-attr-22-name" class="er entityLabel">local_pickup</text><rect height="21" width="23" y="483" x="223.82757568359375" class="er attributeBoxEven"/><text style="dominant-baseline: middle; font-size: 10.2px;" transform="translate(228.82757568359375,493.5)" y="0" x="0" id="text-entity-products-ce7ac559-5ef1-5445-aa6b-0190aa04e35c-attr-22-comment" class="er entityLabel"/><rect height="21" width="68.85165405273438" y="504" x="0" class="er attributeBoxOdd"/><text style="dominant-baseline: middle; font-size: 10.2px;" transform="translate(5,514.5)" y="0" x="0" id="text-entity-products-ce7ac559-5ef1-5445-aa6b-0190aa04e35c-attr-23-type" class="er entityLabel">Int</text><rect height="21" width="154.97592163085938" y="504" x="68.85165405273438" class="er attributeBoxOdd"/><text style="dominant-baseline: middle; font-size: 10.2px;" transform="translate(73.85165405273438,514.5)" y="0" x="0" id="text-entity-products-ce7ac559-5ef1-5445-aa6b-0190aa04e35c-attr-23-name" class="er entityLabel">number_of_sales</text><rect height="21" width="23" y="504" x="223.82757568359375" class="er attributeBoxOdd"/><text style="dominant-baseline: middle; font-size: 10.2px;" transform="translate(228.82757568359375,514.5)" y="0" x="0" id="text-entity-products-ce7ac559-5ef1-5445-aa6b-0190aa04e35c-attr-23-comment" class="er entityLabel"/><rect height="21" width="68.85165405273438" y="525" x="0" class="er attributeBoxEven"/><text style="dominant-baseline: middle; font-size: 10.2px;" transform="translate(5,535.5)" y="0" x="0" id="text-entity-products-ce7ac559-5ef1-5445-aa6b-0190aa04e35c-attr-24-type" class="er entityLabel">Int</text><rect height="21" width="154.97592163085938" y="525" x="68.85165405273438" class="er attributeBoxEven"/><text style="dominant-baseline: middle; font-size: 10.2px;" transform="translate(73.85165405273438,535.5)" y="0" x="0" id="text-entity-products-ce7ac559-5ef1-5445-aa6b-0190aa04e35c-attr-24-name" class="er entityLabel">number_of_views</text><rect height="21" width="23" y="525" x="223.82757568359375" class="er attributeBoxEven"/><text style="dominant-baseline: middle; font-size: 10.2px;" transform="translate(228.82757568359375,535.5)" y="0" x="0" id="text-entity-products-ce7ac559-5ef1-5445-aa6b-0190aa04e35c-attr-24-comment" class="er entityLabel"/><rect height="21" width="68.85165405273438" y="546" x="0" class="er attributeBoxOdd"/><text style="dominant-baseline: middle; font-size: 10.2px;" transform="translate(5,556.5)" y="0" x="0" id="text-entity-products-ce7ac559-5ef1-5445-aa6b-0190aa04e35c-attr-25-type" class="er entityLabel">Int</text><rect height="21" width="154.97592163085938" y="546" x="68.85165405273438" class="er attributeBoxOdd"/><text style="dominant-baseline: middle; font-size: 10.2px;" transform="translate(73.85165405273438,556.5)" y="0" x="0" id="text-entity-products-ce7ac559-5ef1-5445-aa6b-0190aa04e35c-attr-25-name" class="er entityLabel">number_of_views_in_last_week</text><rect height="21" width="23" y="546" x="223.82757568359375" class="er attributeBoxOdd"/><text style="dominant-baseline: middle; font-size: 10.2px;" transform="translate(228.82757568359375,556.5)" y="0" x="0" id="text-entity-products-ce7ac559-5ef1-5445-aa6b-0190aa04e35c-attr-25-comment" class="er entityLabel"/><rect height="21" width="68.85165405273438" y="567" x="0" class="er attributeBoxEven"/><text style="dominant-baseline: middle; font-size: 10.2px;" transform="translate(5,577.5)" y="0" x="0" id="text-entity-products-ce7ac559-5ef1-5445-aa6b-0190aa04e35c-attr-26-type" class="er entityLabel">DateTime</text><rect height="21" width="154.97592163085938" y="567" x="68.85165405273438" class="er attributeBoxEven"/><text style="dominant-baseline: middle; font-size: 10.2px;" transform="translate(73.85165405273438,577.5)" y="0" x="0" id="text-entity-products-ce7ac559-5ef1-5445-aa6b-0190aa04e35c-attr-26-name" class="er entityLabel">created_at</text><rect height="21" width="23" y="567" x="223.82757568359375" class="er attributeBoxEven"/><text style="dominant-baseline: middle; font-size: 10.2px;" transform="translate(228.82757568359375,577.5)" y="0" x="0" id="text-entity-products-ce7ac559-5ef1-5445-aa6b-0190aa04e35c-attr-26-comment" class="er entityLabel"/><rect height="21" width="68.85165405273438" y="588" x="0" class="er attributeBoxOdd"/><text style="dominant-baseline: middle; font-size: 10.2px;" transform="translate(5,598.5)" y="0" x="0" id="text-entity-products-ce7ac559-5ef1-5445-aa6b-0190aa04e35c-attr-27-type" class="er entityLabel">DateTime</text><rect height="21" width="154.97592163085938" y="588" x="68.85165405273438" class="er attributeBoxOdd"/><text style="dominant-baseline: middle; font-size: 10.2px;" transform="translate(73.85165405273438,598.5)" y="0" x="0" id="text-entity-products-ce7ac559-5ef1-5445-aa6b-0190aa04e35c-attr-27-name" class="er entityLabel">updated_at</text><rect height="21" width="23" y="588" x="223.82757568359375" class="er attributeBoxOdd"/><text style="dominant-baseline: middle; font-size: 10.2px;" transform="translate(228.82757568359375,598.5)" y="0" x="0" id="text-entity-products-ce7ac559-5ef1-5445-aa6b-0190aa04e35c-attr-27-comment" class="er entityLabel"/></g><rect height="12" width="86.560546875" y="580" x="65.38172912597656" class="er relationshipLabelBox"/><text style="text-anchor: middle; dominant-baseline: middle; font-size: 12px;" y="586" x="108.66200256347656" id="rel1" class="er relationshipLabel">enum:user_type</text><rect height="12" width="56.54833984375" y="672.2144165039062" x="346.7483215332031" class="er relationshipLabelBox"/><text style="text-anchor: middle; dominant-baseline: middle; font-size: 12px;" y="678.2144165039062" x="375.0224914550781" id="rel2" class="er relationshipLabel">enum:type</text><rect height="12" width="59.3323974609375" y="672.2144165039062" x="561.1732788085938" class="er relationshipLabelBox"/><text style="text-anchor: middle; dominant-baseline: middle; font-size: 12px;" y="678.2144165039062" x="590.8394775390625" id="rel3" class="er relationshipLabel">enum:state</text></svg>